<?xml version="1.0" encoding="utf-8"?>
<!-- Generator: Adobe Illustrator 24.2.1, SVG Export Plug-In . SVG Version: 6.00 Build 0)  -->
<svg version="1.1" id="Calque_1" xmlns="http://www.w3.org/2000/svg" xmlns:xlink="http://www.w3.org/1999/xlink" x="0px" y="0px"
	 viewBox="0 0 54.9 200.8" style="enable-background:new 0 0 54.9 200.8;" xml:space="preserve">
<style type="text/css">
	.st0{fill:#FDC300;}
</style>
<path class="st0" d="M46.2,185.8c0.8,1.3,4,8.4,6,12.9H22.8c0,0-9.4,0.5-9.4-11.9v-175l-11-9.3h49.8l-6,12.9c-1.2,2.2-3.7,5-9.4,5
	H34c-1.6,0-2.8,1.3-2.7,2.9c0,0,0,0.1,0,0.1v154.4c-0.1,1.6,1.1,2.9,2.7,3c0,0,0.1,0,0.1,0h2.7C42.4,180.8,44.9,183.5,46.2,185.8z"
	/>
</svg>
