<svg xmlns="http://www.w3.org/2000/svg" width="22.31" height="22.31" viewBox="0 0 22.31 22.31">
  <path id="Tracé_6" data-name="Tracé 6" d="M33.125,15.126H19.438a4.316,4.316,0,0,0-4.312,4.311V33.125a4.317,4.317,0,0,0,4.312,4.312H33.125a4.316,4.316,0,0,0,4.312-4.312V19.438A4.315,4.315,0,0,0,33.125,15.126ZM34.363,17.7l.493,0v3.781l-3.77.012-.013-3.781ZM23.1,23.992a3.92,3.92,0,1,1-.743,2.29A3.92,3.92,0,0,1,23.1,23.992Zm12.165,9.134a2.14,2.14,0,0,1-2.138,2.137H19.438A2.14,2.14,0,0,1,17.3,33.125V23.992H20.63a6.1,6.1,0,1,0,11.3,0h3.331v9.134Z" transform="translate(-15.126 -15.126)" fill="#1e1e1f"/>
</svg>
