<?xml version="1.0" encoding="utf-8"?>
<!-- Generator: Adobe Illustrator 22.0.1, SVG Export Plug-In . SVG Version: 6.00 Build 0)  -->
<svg version="1.1" id="Calque_1" xmlns="http://www.w3.org/2000/svg" xmlns:xlink="http://www.w3.org/1999/xlink" x="0px" y="0px"
	 viewBox="0 0 236 40" style="enable-background:new 0 0 236 40;" xml:space="preserve">
<style type="text/css">
	.st0{fill:#FFFFFF;}
</style>
<title>logo-rank-one-no-baseline</title>
<path id="E" class="st0" d="M227,35.6V22c0-0.6,0.4-1,1-1h1.7c0.8,0.1,1.6-0.3,2.1-1c0.2-0.3,0.8-2,1.3-3h-6V5.4c0-0.5,0.3-1,0.8-1
	c0.1,0,0.1,0,0.2,0h3.3c0.9,0.1,1.7-0.3,2.1-1.1l1.3-2.9h-14.2l2.6,2.1v37.1h9c0.9,0.1,1.7-0.3,2.2-1.1c0.2-0.3,0.9-1.9,1.3-2.9
	L227,35.6z"/>
<path id="N" class="st0" d="M198.2,0.4V23l-4.1-20.4c-0.2-1.1-0.6-2.2-2.9-2.2h-4.3l2.5,2.1v37.1h4V17.7l4.3,19.4
	c0.1,1.4,1.3,2.6,2.7,2.5h1.8V0.4H198.2z"/>
<path id="O" class="st0" d="M167.8,2.1c-0.9-1.2-2.4-2-3.9-2.1h-3.1c-1.6,0-3.1,0.8-4.1,2.1c-0.6,0.9-1,1.9-0.9,2.9v30.1
	c0,1.5,0.8,3,2,3.9c0.9,0.6,1.9,1,3,1h3.1c1,0,2-0.4,2.9-1c1.2-0.9,2-2.4,2-3.9V5C168.7,3.9,168.4,2.9,167.8,2.1z M163.9,35.6
	c0,0.5-0.4,0.8-0.8,0.8c0,0,0,0,0,0h-1.7c-0.5,0-0.8-0.4-0.8-0.8V5.3l-2.1-1.8h3.5c1.1,0,2,0.9,2,2L163.9,35.6z"/>
<path id="K" class="st0" d="M114.2,39.6h-4l-5.4-17.5v17.5h-4V2.5l-2.5-2.1h4.1c1.3,0,2.4,1.1,2.4,2.4v11.9l4.8-13.9h4.2l-6.2,17.4
	L114.2,39.6z"/>
<path id="N-2" class="st0" d="M76.1,0.4V23L72,2.6c-0.3-1.1-0.7-2.2-2.9-2.2h-4.3l2.5,2.1v37.1h4V17.7l4.3,19.4
	c0.1,1.4,1.3,2.6,2.7,2.5h1.8V0.4H76.1z"/>
<rect id="_" x="33" y="35.2" class="st0" width="16.7" height="4.8"/>
<path id="A" class="st0" d="M49.3,31h-4.2l-3.7-18.4L37.7,31h-4.3l5.7-28.8l-2.2-1.9h4.7c1.7,0,2,1.1,2.1,2.1L49.3,31z"/>
<path id="R" class="st0" d="M14,20.9c1.6-0.4,1.4-3.5,1.4-3.5V5.3c0-2.7-2.2-4.9-4.9-4.9H0.7l2.5,2.1v37.1h4V22.7h2.2
	c1.1,0,2.1,0.6,2.1,2.5v14.3h4v-15C15.5,24.6,15.6,21.7,14,20.9z M11.4,16.7c0,1.8-1,2.2-2.1,2.2H7.3V4.1h2.1c1-0.1,2,0.7,2.1,1.7
	c0,0.1,0,0.2,0,0.3L11.4,16.7z"/>
</svg>
