<svg id="Calque_1" data-name="Calque 1" xmlns="http://www.w3.org/2000/svg" viewBox="0 0 235.99 40"><defs><style>.cls-1{fill:#1e1f1f;}</style></defs><title>logo-rank-one-no-baseline</title><path id="E" class="cls-1" d="M227,35.63V22a1,1,0,0,1,1-1h1.68A2.19,2.19,0,0,0,231.74,20c.17-.34.84-2,1.29-3H227V5.38a.92.92,0,0,1,1-1h3.25a2.13,2.13,0,0,0,2.13-1.12L234.65.39h-14.2L223,2.48V39.6h9a2.28,2.28,0,0,0,2.18-1.06c.17-.34.85-1.9,1.29-2.91Z"/><path id="N" class="cls-1" d="M198.24.39V23L194.1,2.58c-.23-1.12-.62-2.19-2.86-2.19H186.9l2.49,2.1V39.61h4V17.7l4.32,19.39a2.62,2.62,0,0,0,2.69,2.52h1.84V.39Z"/><path id="O" class="cls-1" d="M167.75,2.06A5.17,5.17,0,0,0,163.84,0h-3.08a5.05,5.05,0,0,0-4.09,2.06A4.93,4.93,0,0,0,155.72,5V35.07a5,5,0,0,0,2,3.91,5,5,0,0,0,3,1h3.08a5.09,5.09,0,0,0,2.87-1,5,5,0,0,0,2-3.91V5A4.88,4.88,0,0,0,167.75,2.06Zm-3.84,33.56a.83.83,0,0,1-.84.84h-1.7a.84.84,0,0,1-.84-.84V5.28l-2.1-1.75h3.47a2,2,0,0,1,2,2Z"/><path id="K" class="cls-1" d="M114.21,39.6h-4L104.8,22.07V39.6h-4V2.48L98.32.39h4.08a2.41,2.41,0,0,1,2.4,2.4V14.68L109.63.78h4.2L107.6,18.15Z"/><path id="N-2" data-name="N" class="cls-1" d="M76.11.39V23L72,2.58C71.74,1.46,71.35.39,69.11.39H64.77l2.49,2.09V39.61h4V17.7l4.31,19.39a2.63,2.63,0,0,0,2.69,2.52h1.85V.39Z"/><rect id="_" class="cls-1" x="33.04" y="35.18" width="16.68" height="4.82"/><path id="A" class="cls-1" d="M49.34,31H45.1L41.38,12.61,37.67,31H33.42L39.08,2.25,36.87.39h4.68c1.68,0,2,1.06,2.13,2.13Z"/><path id="R" class="cls-1" d="M14,20.9c1.62-.4,1.45-3.48,1.45-3.48V5.32A4.94,4.94,0,0,0,10.56.39H.73L3.22,2.48V39.61h4V22.74H9.39c1.06,0,2.07.62,2.07,2.53V39.61h4v-15S15.6,21.68,14,20.9Zm-2.58-4.21c0,1.8-1,2.24-2.07,2.24H7.26V4.14H9.39a1.89,1.89,0,0,1,2.07,2Z"/></svg>