<svg id="Calque_1" data-name="Calque 1" xmlns="http://www.w3.org/2000/svg" viewBox="0 0 148.13 40"><defs><style>.cls-1{fill:#1e1f1f;}</style></defs><title>Plan de travail 1</title><path id="E" class="cls-1" d="M142.29,22.32V13.79a.62.62,0,0,1,.6-.6h1.05a1.36,1.36,0,0,0,1.33-.66c.11-.21.53-1.23.81-1.86h-3.79V3.37a.57.57,0,0,1,.6-.6h2a1.34,1.34,0,0,0,1.33-.7L147.1.24h-8.9l1.56,1.31V24.81h5.62a1.44,1.44,0,0,0,1.37-.67c.1-.21.52-1.19.8-1.82Z"/><path id="N" class="cls-1" d="M124.29.25V14.39l-2.6-12.78c-.14-.7-.39-1.36-1.79-1.36h-2.72l1.56,1.31V24.81h2.53V11.09L124,23.23a1.65,1.65,0,0,0,1.69,1.58h1.15V.25Z"/><path id="O" class="cls-1" d="M105.19,1.29A3.22,3.22,0,0,0,102.74,0h-1.93a3.16,3.16,0,0,0-2.56,1.29,3.09,3.09,0,0,0-.6,1.83V22a3.17,3.17,0,0,0,1.27,2.45,3.12,3.12,0,0,0,1.89.64h1.93a3.19,3.19,0,0,0,1.79-.64A3.12,3.12,0,0,0,105.79,22V3.12A3.09,3.09,0,0,0,105.19,1.29Zm-2.41,21a.52.52,0,0,1-.53.53h-1.06a.53.53,0,0,1-.53-.53v-19l-1.31-1.1h2.17a1.26,1.26,0,0,1,1.26,1.26Z"/><path id="K" class="cls-1" d="M71.65,24.81H69.12l-3.37-11v11H63.26V1.56L61.7.24h2.55a1.51,1.51,0,0,1,1.5,1.51V9.19l3-8.7h2.63L67.5,11.37Z"/><path id="N-2" data-name="N" class="cls-1" d="M47.78.25V14.39L45.19,1.61C45.05.91,44.8.25,43.4.25H40.68l1.56,1.3V24.81h2.52V11.09l2.71,12.14a1.64,1.64,0,0,0,1.68,1.58h1.16V.25Z"/><rect id="_" class="cls-1" x="20.8" y="22.04" width="10.45" height="3.02"/><path id="A" class="cls-1" d="M31,19.41H28.35L26,7.9,23.7,19.41H21l3.55-18L23.2.24h2.93c1.05,0,1.23.67,1.33,1.34Z"/><path id="R" class="cls-1" d="M8.9,13.09c1-.25.91-2.18.91-2.18V3.33A3.09,3.09,0,0,0,6.72.25H.56L2.12,1.56V24.81H4.65V14.25H6c.67,0,1.3.38,1.3,1.58v9H9.81v-9.4S9.88,13.58,8.9,13.09ZM7.28,10.46c0,1.12-.63,1.4-1.3,1.4H4.65V2.6H6a1.18,1.18,0,0,1,1.3,1.26Z"/><path class="cls-1" d="M2.12,31.53H7.5v2.21H6.59V32.43H4v2.88H6.59v.91H4V39.1H6.59V37.79H7.5V40H2.12v-.9h.79V32.43H2.12Z"/><path class="cls-1" d="M19.88,34.2h-.94v-1l-.67-.7H16.54l-.59.6v1.56l.56.56h2.34L20,36.42v2.34L18.82,40H16L14.8,38.76V37.33h.94v1l.69.7h1.95l.58-.6V36.75l-.55-.56H16.06L14.91,35V32.77l1.18-1.24h2.62l1.17,1.24Z"/><path class="cls-1" d="M27.32,31.53h4.51L33,32.77v2.6l-1.18,1.24H29.15V39.1h.9V40H27.32v-.9h.79V32.43h-.79Zm1.83,1v3.14h2.23L32,35v-1.8l-.65-.67Z"/><path class="cls-1" d="M41.13,40,40,38.76v-6l1.18-1.24h3.18l1.18,1.24v6L44.31,40Zm.44-1h2.29l.59-.6V33.1l-.58-.6H41.58l-.59.6v5.33Z"/><path class="cls-1" d="M52.93,31.53h4.52l1.18,1.24v2.49L57.45,36.5l1.21,2.6h.59V40H57.12v-.9h.44l-1.2-2.6h-1.6v2.6h.68V40H52.93v-.9h.79V32.43h-.79Zm1.83,1v3H57l.65-.67V33.17L57,32.5Z"/><path class="cls-1" d="M70.25,40H67v-.9h1.13V32.43H66.41v1.31h-.86V31.53h6.1v2.21h-.86V32.43H69.12V39.1h1.13Z"/><path class="cls-1" d="M97.65,31.53h4.52l1.17,1.24v2l-.61.65.84.87v2.44L102.39,40H97.65v-.9h.79V32.43h-.79Zm1.83,1v2.58h2.23l.66-.67V33.17l-.64-.67Zm0,3.48V39h2.46l.66-.67V36.71l-.72-.73Z"/><path class="cls-1" d="M113.59,31.53h3v.9h-.52l2,6.66h.57V40h-2.4v-.9H117l-.52-1.74h-2.83l-.52,1.74H114V40h-2.39v-.9h.56l2-6.66h-.52Zm1.5,1.07L114,36.45h2.29Z"/><path class="cls-1" d="M126.37,31.53h4.52l1.17,1.24v2.48l-1.17,1.24,1.21,2.6h.58V40h-2.12v-.9H131l-1.21-2.6H128.2v2.6h.68V40h-2.51v-.9h.79V32.43h-.79Zm1.83,1v3h2.24l.65-.66v-1.7l-.64-.66Z"/><path class="cls-1" d="M146.08,34.2h-.94v-1l-.68-.7h-1.72l-.59.6v1.56l.55.56h2.35l1.14,1.2v2.34L145,40h-2.85L141,38.76V37.34h.93v1l.69.7h2l.57-.6V36.75l-.54-.56h-2.35L141.11,35V32.77l1.17-1.24h2.62l1.18,1.24Z"/></svg>