<svg xmlns="http://www.w3.org/2000/svg" width="15.163" height="15.162" viewBox="0 0 15.163 15.162">
  <path id="Tracé_9" data-name="Tracé 9" d="M21.716,14.839a7.581,7.581,0,0,0-3.042,14.524,6.638,6.638,0,0,1,.131-1.74c.146-.615.975-4.131.975-4.131a2.913,2.913,0,0,1-.242-1.2c0-1.124.651-1.963,1.462-1.963a1.016,1.016,0,0,1,1.023,1.138,16.34,16.34,0,0,1-.669,2.69,1.173,1.173,0,0,0,1.2,1.46c1.436,0,2.4-1.844,2.4-4.03a2.838,2.838,0,0,0-3.154-2.9,3.589,3.589,0,0,0-3.732,3.63,2.19,2.19,0,0,0,.5,1.487.369.369,0,0,1,.109.423c-.036.139-.12.475-.155.608a.261.261,0,0,1-.379.19,2.919,2.919,0,0,1-1.552-2.9c0-2.153,1.815-4.736,5.417-4.736a4.531,4.531,0,0,1,4.8,4.343c0,2.975-1.653,5.2-4.091,5.2a2.173,2.173,0,0,1-1.851-.945s-.44,1.747-.533,2.083a6.336,6.336,0,0,1-.763,1.624,7.581,7.581,0,1,0,2.148-14.851Z" transform="translate(-14.135 -14.839)" fill="#1e1f1f"/>
</svg>
