<svg id="Groupe_5" data-name="Groupe 5" xmlns="http://www.w3.org/2000/svg" width="15.943" height="13.951" viewBox="0 0 15.943 13.951">
  <g id="Groupe_4" data-name="Groupe 4">
    <path id="Tracé_3" data-name="Tracé 3" d="M30,17.7a6.06,6.06,0,0,1-1.881.555,3.5,3.5,0,0,0,1.443-1.945,6.566,6.566,0,0,1-2.082.857,3.154,3.154,0,0,0-2.386-1.116,3.4,3.4,0,0,0-3.271,3.522,3.869,3.869,0,0,0,.082.8A9.082,9.082,0,0,1,15.164,16.7a3.717,3.717,0,0,0-.441,1.77,3.576,3.576,0,0,0,1.455,2.926,3.089,3.089,0,0,1-1.482-.438V21a3.476,3.476,0,0,0,2.623,3.453,3.076,3.076,0,0,1-.864.117,2.6,2.6,0,0,1-.611-.062A3.3,3.3,0,0,0,18.9,26.955a6.248,6.248,0,0,1-4.062,1.507,6.007,6.007,0,0,1-.781-.049A8.75,8.75,0,0,0,19.07,30c6.016,0,9.307-5.367,9.307-10.02,0-.149,0-.3-.011-.451A7.146,7.146,0,0,0,30,17.7Z" transform="translate(-14.056 -16.051)" fill="#1e1e1f"/>
  </g>
</svg>
